Coordinates
version=1
nRows=13
nColumns=40
inDegrees=yes

Units are S.I. units (second, meters, Newtons, ...)
Angles are in degrees.

endheader
time	pelvis_tilt	pelvis_list	pelvis_rotation	pelvis_tx	pelvis_ty	pelvis_tz	hip_flexion_r	hip_adduction_r	hip_rotation_r	knee_angle_r	knee_angle_r_beta	ankle_angle_r	subtalar_angle_r	mtp_angle_r	hip_flexion_l	hip_adduction_l	hip_rotation_l	knee_angle_l	knee_angle_l_beta	ankle_angle_l	subtalar_angle_l	mtp_angle_l	lumbar_extension	lumbar_bending	lumbar_rotation	arm_flex_r	arm_add_r	arm_rot_r	elbow_flex_r	pro_sup_r	wrist_flex_r	wrist_dev_r	arm_flex_l	arm_add_l	arm_rot_l	elbow_flex_l	pro_sup_l	wrist_flex_l	wrist_dev_l
     39.57500000	     -9.12551073	     -4.65770125	    -12.48773799	      0.92825579	      0.93025439	      0.45125765	     24.50250220	     -0.51667884	     -6.53723794	     15.78734125	     15.78734125	      7.63089494	      9.89184479	      3.36905391	      8.12663062	     -6.32106976	    -13.12771884	     14.37931814	     14.37931814	     15.22325322	    -11.19542715	      0.46178435	     -8.81193142	      5.28157312	      2.88059154	    -13.04248708	    -12.20291460	    -11.11875420	     27.00118125	     46.39479117	      0.00000000	      0.00000000	     29.83349423	    -17.71772051	    -13.18681769	     64.06849052	     47.85192322	      0.00000000	      0.00000000
     39.59250000	     -9.13903604	     -4.29129877	    -12.56892016	      0.92838887	      0.92874336	      0.45458331	     24.28721141	     -0.37661702	     -7.07853228	     13.98165320	     13.98165320	      7.12126193	     11.81232948	      4.54459052	      7.44768627	     -6.03804996	    -13.55874076	     13.77584734	     13.77584734	     15.34992703	    -10.66444164	     -0.25785779	     -8.64129669	      4.98677691	      3.01634324	    -13.37041693	    -11.96821346	    -10.91779987	     26.83696769	     46.38196521	      0.00000000	      0.00000000	     30.12363684	    -17.66380070	    -13.48317782	     64.80051814	     47.88251230	      0.00000000	      0.00000000
     39.61000000	     -9.13785263	     -3.97308889	    -12.59473899	      0.92879528	      0.92724124	      0.45806449	     24.19166753	     -0.23506115	     -7.44802548	     12.98246897	     12.98246897	      6.59145441	     12.95262660	      5.24481853	      6.77292806	     -5.81129135	    -13.91521360	     13.24408384	     13.24408384	     15.46980654	    -10.17812405	     -0.96331006	     -8.46029619	      4.75868098	      3.12985010	    -13.59578182	    -11.77928930	    -10.72833602	     26.62322635	     46.37382035	      0.00000000	      0.00000000	     30.29600043	    -17.56861569	    -13.87989512	     65.49353259	     47.91890578	      0.00000000	      0.00000000
     39.62750000	     -9.14361370	     -3.73822744	    -12.52764997	      0.92939731	      0.92568776	      0.46158179	     24.35250960	     -0.07709914	     -7.45164756	     12.98086515	     12.98086515	      6.23811231	     13.00365862	      5.35825816	      6.35931380	     -5.70709283	    -13.90535130	     13.23813567	     13.23813567	     15.81363303	    -10.21558119	     -1.11671874	     -8.20295881	      4.72378593	      3.08413617	    -13.64491682	    -11.71363163	    -10.71573331	     26.60052906	     46.37318373	      0.00000000	      0.00000000	     30.38602891	    -17.58255757	    -13.90678440	     65.56433919	     47.92248103	      0.00000000	      0.00000000
     39.64500000	     -9.08417920	     -3.46351952	    -12.45090756	      0.93051927	      0.92449253	      0.46533596	     24.18373143	     -0.00690618	     -7.50641412	     12.85093448	     12.85093448	      5.09345380	     13.12025555	      2.96653516	      5.49255798	     -5.54520796	    -14.49239277	     12.50656809	     12.50656809	     15.59271242	     -9.21135740	     -2.79339744	     -8.07038355	      4.52964972	      2.77277131	    -13.20869058	    -11.61236630	     -9.91315415	     25.50976530	     46.36745428	      0.00000000	      0.00000000	     29.84416194	    -17.16793768	    -16.07533771	     67.33529405	     48.07376968	      0.00000000	      0.00000000
     39.66250000	     -9.00568623	     -3.39041191	    -12.25731822	      0.93182105	      0.92357657	      0.46908485	     24.14235918	      0.14363956	     -7.49373212	     13.50927137	     13.50927137	      4.97967972	     12.67084377	      2.57714052	      4.82915199	     -5.58376941	    -14.40492524	     12.29032400	     12.29032400	     15.85441174	     -9.05339056	     -2.79760099	     -7.92936533	      4.66124846	      2.84346814	    -13.25721988	    -11.59034359	     -9.84331293	     25.37724611	     46.36789989	      0.00000000	      0.00000000	     29.77950249	    -16.94877146	    -16.12169564	     67.46615644	     48.07583479	      0.00000000	      0.00000000
     39.68000000	     -8.85758968	     -3.22601864	    -12.09485403	      0.93333439	      0.92281840	      0.47304445	     23.95099680	      0.29015958	     -6.65458314	     14.11904246	     14.11904246	      3.88965734	     10.88918921	     -1.33923660	      4.18058248	     -5.57040168	    -14.54302195	     12.28098411	     12.28098411	     16.42994431	     -8.48656810	     -2.20445031	     -7.83721465	      4.65872895	      2.75683058	    -12.84458679	    -11.63087756	     -9.29279239	     24.53484833	     46.37503906	      0.00000000	      0.00000000	     29.44570267	    -16.47369005	    -17.39825170	     68.27505139	     48.14595454	      0.00000000	      0.00000000
     39.69750000	     -8.70361956	     -3.20117793	    -11.85907693	      0.93496941	      0.92239377	      0.47697016	     23.86318350	      0.37138328	     -6.52682121	     15.28298399	     15.28298399	      4.16679789	     10.11217274	     -1.94534280	      3.52362844	     -5.69262008	    -14.43859417	     12.26538258	     12.26538258	     16.62461232	     -8.34070605	     -2.08624712	     -7.78091489	      4.85486823	      2.81694282	    -12.77824534	    -11.77418494	     -9.25467886	     24.46287632	     46.37782162	      0.00000000	      0.00000000	     29.22898296	    -16.25901269	    -17.46278486	     68.33202640	     48.14523743	      0.00000000	      0.00000000
     39.71500000	     -8.57188394	     -3.13681172	    -11.58371449	      0.93662514	      0.92214124	      0.48101027	     23.75455957	      0.47286611	     -5.96311552	     16.41081867	     16.41081867	      4.46731141	      8.55240814	     -2.74767860	      3.04182651	     -5.83267521	    -14.29764894	     12.51788683	     12.51788683	     16.90319484	     -8.21032507	     -1.70200675	     -7.66116376	      4.96815443	      2.85559905	    -12.62509834	    -11.86728175	     -9.18678977	     24.33645444	     46.38276099	      0.00000000	      0.00000000	     28.88645372	    -15.84998663	    -17.74867901	     68.52533090	     48.15767983	      0.00000000	      0.00000000
     39.73250000	     -8.37747163	     -3.28099583	    -11.28739303	      0.93838385	      0.92235475	      0.48512345	     23.24062733	      0.69701764	     -5.95196280	     17.05284061	     17.05284061	      4.91962835	      8.01058770	     -3.07993610	      2.49111920	     -6.19722037	    -14.05520692	     12.82137747	     12.82137747	     16.99573427	     -8.23969197	     -1.58564109	     -7.65818412	      5.31616597	      2.85757110	    -12.47602555	    -12.06389667	     -9.19300006	     24.33496000	     46.38621416	      0.00000000	      0.00000000	     28.47967720	    -15.48431032	    -17.75221004	     68.46097991	     48.15157878	      0.00000000	      0.00000000
     39.75000000	     -8.14332176	     -3.38948813	    -11.00551398	      0.93996130	      0.92271926	      0.48941150	     22.76076398	      0.91515981	     -5.76270556	     17.79345475	     17.79345475	      5.47514041	      7.15889268	     -3.41376804	      2.05720166	     -6.57644485	    -13.82742460	     13.39786003	     13.39786003	     17.07804096	     -8.38171489	     -1.38572752	     -7.73652253	      5.54403518	      2.90964543	    -12.22773537	    -12.27796006	     -9.20165019	     24.35591057	     46.39012825	      0.00000000	      0.00000000	     28.12579195	    -15.17774290	    -17.83451600	     68.44385616	     48.15176868	      0.00000000	      0.00000000
     39.76750000	     -8.13163616	     -3.48065352	    -10.73299478	      0.94116471	      0.92301126	      0.49399166	     22.40084632	      1.36142026	     -4.79968573	     18.20324902	     18.20324902	      5.88736862	      5.05621398	     -3.54211721	      2.21023442	     -7.12436634	    -13.71029873	     14.67120587	     14.67120587	     18.00595039	     -8.08150641	      0.50106340	     -7.62375868	      5.72065612	      2.64150571	    -11.60700909	    -12.42674766	     -9.14228643	     24.11346741	     46.41180949	      0.00000000	      0.00000000	     27.50441263	    -14.92130231	    -18.79797860	     68.95738223	     48.19958234	      0.00000000	      0.00000000
     39.78500000	     -7.95476098	     -3.61687224	    -10.44867224	      0.94239131	      0.92365905	      0.49849811	     21.78214075	      1.61104754	     -4.95381475	     18.47962624	     18.47962624	      6.40080690	      4.86992403	     -3.66410283	      2.09921539	     -7.63636578	    -13.42975815	     15.67073004	     15.67073004	     17.92713324	     -8.40093640	      0.64412213	     -7.64529984	      5.86846594	      2.67255695	    -11.26566287	    -12.61955497	     -9.14533996	     24.16602962	     46.41520994	      0.00000000	      0.00000000	     27.16471386	    -14.68423208	    -18.74559910	     68.84478595	     48.18712151	      0.00000000	      0.00000000
